<svg width="37" height="30" viewBox="0 0 37 30" fill="none" xmlns="http://www.w3.org/2000/svg">
<path d="M23.75 20.25L29.6632 14.3368C30.008 13.9921 30.4173 13.7187 30.8677 13.5323C31.3181 13.3458 31.8008 13.2499 32.2882 13.25H32.5C33.4283 13.25 34.3185 13.6187 34.9749 14.2751C35.6313 14.9315 36 15.8217 36 16.75C36 17.6783 35.6313 18.5685 34.9749 19.2249C34.3185 19.8813 33.4283 20.25 32.5 20.25H4.5C3.57174 20.25 2.6815 19.8813 2.02513 19.2249C1.36875 18.5685 1 17.6783 1 16.75C1 15.8217 1.36875 14.9315 2.02513 14.2751C2.6815 13.6187 3.57174 13.25 4.5 13.25H12.4013C15.1855 13.2501 17.8558 14.3561 19.8247 16.3247L23.75 20.25ZM2.75 20.25H34.25V23.75C34.25 25.1424 33.6969 26.4777 32.7123 27.4623C31.7277 28.4469 30.3924 29 29 29H8C6.60761 29 5.27226 28.4469 4.28769 27.4623C3.30312 26.4777 2.75 25.1424 2.75 23.75V20.25Z" stroke="#F72D57" stroke-width="2" stroke-linecap="round" stroke-linejoin="round"/>
<path d="M18.5018 8H18.5M18.5 1C10.4098 1 3.74401 4.073 2.85151 11.5C2.73601 12.4625 3.53401 13.25 4.50001 13.25H32.5C33.466 13.25 34.264 12.4625 34.1485 11.5C33.256 4.073 26.5903 1 18.5 1ZM9.75176 8H9.75001H9.75176ZM23.7518 6.25H23.75H23.7518Z" stroke="#F72D57" stroke-width="2" stroke-linecap="round" stroke-linejoin="round"/>
</svg>
